<?xml version="1.0" standalone="no"?>
<!DOCTYPE svg PUBLIC "-//W3C//DTD SVG 1.1//EN" "http://www.w3.org/Graphics/SVG/1.1/DTD/svg11.dtd" >
<svg xmlns="http://www.w3.org/2000/svg">
<metadata></metadata>
<defs>
<font id="madius_betaheavy" horiz-adv-x="480" >
<font-face units-per-em="2048" ascent="1692" descent="-356" />
<missing-glyph horiz-adv-x="494" />
<glyph horiz-adv-x="0" />
<glyph horiz-adv-x="682" />
<glyph unicode=" "  horiz-adv-x="494" />
<glyph unicode="&#x09;" horiz-adv-x="494" />
<glyph unicode="&#xa0;" horiz-adv-x="494" />
<glyph unicode="!" d="M60 182v362h360v-362h-360zM60 680v944h360v-944h-360z" />
<glyph unicode="&#x22;" horiz-adv-x="790" d="M18 1468v360h362v-360q0 -62 -28 -122t-56 -88l-30 -28l-168 74l4 4q4 2 9 8t12 15t14 23t13 30t10 38t4 46h-146zM412 1468v360h362v-360q0 -62 -29 -122t-59 -88l-30 -28l-164 74l4 4q4 2 9 8t12 15t14 23t13 30t10 38t4 46h-146z" />
<glyph unicode="#" horiz-adv-x="1232" d="M60 568v270h218l10 136h-200v270h222l30 382h272l-30 -382h134l30 382h272l-30 -382h184v-270h-206l-10 -136h188v-270h-210l-32 -388h-272l32 388h-134l-32 -388h-268l30 388h-198zM550 838h132l12 136h-134z" />
<glyph unicode="$" horiz-adv-x="1190" d="M60 1156q0 172 100 288t248 166v102h358v-82q48 -8 92 -21t70 -24t46 -21t22 -10l-44 -168l-48 -176l-8 4q-6 4 -19 10t-31 13t-44 15t-55 14t-68 10t-79 4q-30 0 -66 -8t-74 -39t-38 -79q0 -28 14 -45t43 -24t49 -8t58 -1q32 0 68 -3t105 -14t128 -40t117 -73t92 -119 t34 -173q0 -188 -101 -310t-263 -166v-110h-358v108q-54 10 -114 24t-99 26t-76 23t-39 11l96 348q270 -92 424 -92q168 0 168 126v14q0 62 -182 62q-216 0 -371 113t-155 325z" />
<glyph unicode="%" horiz-adv-x="1978" d="M60 1440q0 176 122 298t298 122q174 0 296 -122q124 -124 124 -298q0 -172 -124 -296q-122 -122 -296 -122q-176 0 -298 122t-122 296zM70 284l1570 1572l256 -256l-1572 -1570zM420 1440q0 -22 18 -40q16 -16 42 -16q24 0 40 16q18 18 18 40q0 24 -18 42t-40 18 q-24 0 -42 -18t-18 -42zM1080 440q0 170 124 294q122 122 294 122q174 0 296 -122q124 -124 124 -296q0 -174 -124 -298q-122 -122 -296 -122q-168 0 -294 126q-124 124 -124 296zM1442 436q0 -22 18 -40q16 -16 38 -16q28 0 44 16t16 42q0 24 -16 40q-20 20 -44 20 q-18 0 -38 -20q-18 -18 -18 -42z" />
<glyph unicode="&#x26;" horiz-adv-x="1364" d="M60 538q0 68 22 131t54 105t64 75t54 47l22 16q-12 16 -30 45t-49 106t-31 139q0 164 115 280t279 116t285 -118t121 -278q0 -92 -41 -164t-125 -156q46 -54 132 -114q76 84 96 112l276 -192q-52 -74 -114 -148l104 -74l-202 -298l-158 112q-16 -16 -46 -38t-136 -60 t-226 -38q-206 0 -336 107t-130 287zM420 540q0 -24 14 -40q22 -28 60 -28q24 0 55 12t49 24l18 12q-36 30 -72 62l-56 58q-68 -48 -68 -100zM514 1218q0 -22 11 -41t23 -25l12 -8q50 24 50 74v5t-3 11t-8 15t-15 12t-24 5q-46 0 -46 -46v-2z" />
<glyph unicode="'" horiz-adv-x="346" d="M26 1678h298l-54 -476l-200 2z" />
<glyph unicode="(" horiz-adv-x="822" d="M18 908q0 352 152 664t428 534l210 -260q-216 -174 -336 -419t-120 -519q0 -276 120 -521t336 -419l-210 -264q-276 220 -428 535t-152 669z" />
<glyph unicode=")" horiz-adv-x="822" d="M18 -32q216 172 335 418t119 522t-119 521t-335 417l210 262q276 -220 428 -534t152 -666t-152 -667t-428 -535z" />
<glyph unicode="*" horiz-adv-x="1156" d="M68 1514l256 256l-256 254l256 256l256 -256l256 256l252 -256l-254 -254l254 -256l-252 -254l-256 256l-256 -256z" />
<glyph unicode="+" horiz-adv-x="1204" d="M60 720v362h360v360h362v-360h362v-362h-362v-362h-362v362h-360z" />
<glyph unicode="," d="M60 182v362h360v-362q0 -62 -28 -121t-56 -87l-30 -28l-164 72l4 2q4 4 9 10t12 15t14 23t13 30t10 38t4 46h-148z" />
<glyph unicode="-" horiz-adv-x="840" d="M60 532v362h720v-362h-720z" />
<glyph unicode="." d="M60 182v362h360v-362h-360z" />
<glyph unicode="/" horiz-adv-x="1136" d="M0 -82l814 2288l326 -118l-814 -2286z" />
<glyph unicode="0" horiz-adv-x="1202" d="M60 702v112v180v114q0 224 159 383t383 159t382 -159t158 -383v-114v-180v-112q0 -224 -158 -383t-382 -159t-383 159t-159 383zM422 702q0 -74 53 -128t127 -54t128 54t54 128v112h-2v294q0 74 -53 127t-127 53t-127 -53t-53 -127v-114v-292z" />
<glyph unicode="1" horiz-adv-x="614" d="M60 1154v362q60 0 105 28t59 56l16 28h314v-1446h-358v984q-84 -12 -136 -12z" />
<glyph unicode="2" horiz-adv-x="1202" d="M60 1108q0 128 57 243t165 193q146 104 316 104q122 0 236 -55t198 -155q106 -128 106 -300q0 -154 -100 -308t-324 -286h16h412v-362h-1060v316l498 360q198 154 198 276q0 48 -26 82q-52 72 -146 72q-64 0 -112 -36q-72 -52 -72 -144h-362z" />
<glyph unicode="3" horiz-adv-x="1202" d="M60 678h362q0 -20 6 -44t23 -54t55 -49t94 -19q82 0 130 49t48 103q0 58 -37 98t-103 40v210q68 0 104 37t36 93q0 62 -42 110t-124 48q-58 0 -100 -20t-59 -51t-24 -55t-7 -44l-362 -2q0 216 165 369t377 153q238 0 389 -139t151 -359q0 -80 -28 -142t-56 -84l-28 -22 q4 -2 12 -8t27 -30t34 -54t27 -84t12 -118q0 -176 -155 -313t-385 -137q-220 0 -381 145t-161 373z" />
<glyph unicode="4" horiz-adv-x="1180" d="M60 566v338l542 722h336v-700h182v-360h-182v-384h-362v384h-312h-118h-86zM498 926h78v122z" />
<glyph unicode="5" horiz-adv-x="1134" d="M60 666v34h336q0 -86 52 -134t118 -48q68 0 108 46t40 102q0 54 -42 100t-106 46h-506v450v362h362h584v-362h-584v-112h144q230 0 369 -145t139 -329q0 -116 -61 -234t-181 -201t-266 -83q-234 0 -367 141t-139 367z" />
<glyph unicode="6" horiz-adv-x="1136" d="M60 656q0 32 2 48v406q0 234 146 388t360 154q144 0 264 -72t184 -192l-300 -156q-48 88 -148 88q-70 0 -117 -51t-51 -143q80 28 168 28q210 0 359 -146t149 -352t-149 -350t-359 -144t-359 144t-149 350zM400 656q0 -68 49 -116t119 -48t120 48t50 116q0 70 -50 119 t-120 49t-119 -49t-49 -119z" />
<glyph unicode="7" horiz-adv-x="1158" d="M60 1264v362h652h362h24l-656 -1444h-360l472 1082h-494z" />
<glyph unicode="8" horiz-adv-x="1134" d="M60 656q0 216 160 362q-72 104 -72 226q0 170 123 289t295 119t294 -119t122 -289q0 -124 -70 -226q162 -148 162 -362q0 -206 -149 -351t-359 -145t-358 145t-148 351zM398 656q0 -70 49 -118t119 -48t120 49t50 117t-50 117t-120 49t-119 -48t-49 -118zM490 1244 q0 -32 22 -55t54 -23t55 23t23 55t-23 54t-55 22t-54 -22t-22 -54z" />
<glyph unicode="9" horiz-adv-x="1132" d="M60 1154q0 206 148 352t358 146t358 -146t148 -352v-20v-430q0 -234 -147 -388t-361 -154q-144 0 -264 71t-184 191l300 158q48 -90 148 -90q70 0 117 51t51 143q-76 -26 -166 -26q-210 0 -358 144t-148 350zM398 1154q0 -68 49 -116t119 -48q62 0 109 39t57 97v8h2 q0 2 1 9t1 11q0 68 -50 117t-120 49t-119 -48t-49 -118z" />
<glyph unicode=":" d="M60 182v362h360v-362h-360zM60 904v360h360v-360h-360z" />
<glyph unicode=";" d="M60 182v362h360v-362q0 -62 -28 -121t-56 -87l-30 -28l-164 72l4 2q4 4 9 10t12 15t14 23t13 30t10 38t4 46h-148zM60 904v360h360v-360h-360z" />
<glyph unicode="&#x3c;" horiz-adv-x="1314" d="M60 784l1008 602l186 -310l-492 -292l492 -294l-186 -310z" />
<glyph unicode="=" horiz-adv-x="1202" d="M60 556v302h1082v-302h-1082zM60 958v302h1082v-302h-1082z" />
<glyph unicode="&#x3e;" horiz-adv-x="1314" d="M60 490l490 294l-490 292l184 310l1010 -602l-1010 -604z" />
<glyph unicode="?" horiz-adv-x="1202" d="M60 1264q0 224 159 383t383 159q226 0 383 -150t157 -368q0 -232 -258 -442q-120 -98 -120 -168h-336q0 80 20 148t62 121t70 82t78 69q76 62 100 96t24 94q0 76 -54 117t-126 41q-74 0 -127 -54t-53 -128h-362zM422 182v362h358v-362h-358z" />
<glyph unicode="@" horiz-adv-x="2390" d="M60 718q0 230 90 440t242 361t363 241t441 90q314 0 574 -145t410 -398t150 -559q0 -148 -31 -262t-79 -181t-116 -109t-134 -57t-140 -15q-228 0 -366 156q-8 8 -14 8q-10 0 -18 -8q-136 -94 -290 -94q-206 0 -352 147t-146 353q0 258 180 408q146 122 416 122 q96 0 197 -15t155 -29l54 -16q-20 -140 -20 -292q0 -276 82 -358q50 -50 122 -50q32 0 50 2t44 17t39 44t24 87t11 142q0 328 -229 549t-573 221q-332 0 -567 -235t-235 -567t235 -566t567 -234v-334q-230 0 -441 90t-363 242t-242 363t-90 441zM976 686q0 -70 49 -119 t117 -49q94 0 168 108q-10 62 -10 148q0 22 1 61t1 57q-6 0 -16 1t-14 1q-164 0 -240 -62q-56 -42 -56 -146z" />
<glyph unicode="A" horiz-adv-x="1486" d="M20 182l542 1446h362l542 -1446h-362l-136 362h-452l-134 -362h-362zM654 906h178l-90 238z" />
<glyph unicode="B" horiz-adv-x="1294" d="M60 182v46v1378v22h316h264q186 0 318 -133t132 -317q0 -86 -46 -174q190 -132 190 -370q0 -184 -133 -318t-319 -134h-406h-316zM422 534h344q34 0 59 27t25 65t-25 65t-59 27h-344v-184zM422 1086h216q38 0 63 27t25 65t-25 63t-63 25h-216v-180z" />
<glyph unicode="C" horiz-adv-x="1338" d="M60 898q0 308 218 526t526 218q302 0 514 -216l-258 -260q-106 106 -256 106q-154 0 -264 -109t-110 -263t110 -263t264 -109q148 0 254 106l260 -264q-212 -216 -514 -216q-308 0 -526 218t-218 526z" />
<glyph unicode="D" horiz-adv-x="1344" d="M60 182v1444h362h180q298 0 510 -211t212 -509q0 -302 -212 -513t-510 -211h-180h-362zM422 542h180q150 0 256 106t106 256t-106 255t-256 105h-180v-722z" />
<glyph unicode="E" horiz-adv-x="1288" d="M60 182v1446h1168v-362h-806v-180h492v-362h-492v-180h806v-362h-806h-362z" />
<glyph unicode="F" horiz-adv-x="1288" d="M60 182v1446h1168v-362h-806v-180h492v-362h-492v-542h-362z" />
<glyph unicode="G" horiz-adv-x="1542" d="M60 904q0 306 217 522t523 216q300 0 516 -222l-262 -254q-104 108 -254 108q-154 0 -263 -108t-109 -260t109 -260t263 -108q110 0 200 61t132 159h-2l-28 -38h-194v346h614v-162q0 -306 -211 -523t-511 -217q-306 0 -523 217t-217 523z" />
<glyph unicode="H" horiz-adv-x="1474" d="M60 182v1446h362v-542h630v542h362v-542v-362v-542h-362v542h-630v-542h-362z" />
<glyph unicode="I" d="M40 180v1446h360v-1446h-360z" />
<glyph unicode="J" horiz-adv-x="1020" d="M60 632v88h362v-88q0 -38 25 -64t63 -26t65 26t27 64v992h358v-992q0 -188 -132 -320t-318 -132q-188 0 -319 133t-131 319z" />
<glyph unicode="K" horiz-adv-x="1422" d="M60 182v1446h362v-486l454 486h414l-608 -670l710 -776h-464l-486 510l-20 -22v-488h-362z" />
<glyph unicode="L" horiz-adv-x="1288" d="M60 182v1444h362v-1082h806v-362h-806h-362z" />
<glyph unicode="M" horiz-adv-x="1562" d="M60 182v1266v180h346l376 -498l376 498h344v-180v-1266h-360v850l-362 -418l-358 418v-850h-362z" />
<glyph unicode="N" horiz-adv-x="1382" d="M60 182v1446h362l538 -810v812h362v-1444h-362l-538 810v-814h-362z" />
<glyph unicode="O" horiz-adv-x="1506" d="M20 904q0 300 222 523t522 223q292 0 507 -222t215 -524q0 -300 -214 -522t-508 -222q-300 0 -522 222t-222 522zM382 904q0 -150 116 -267t266 -117q146 0 264 117t118 267t-118 267t-264 117q-150 0 -266 -117t-116 -267z" />
<glyph unicode="P" horiz-adv-x="1078" d="M60 182v1444h316h230q186 0 319 -133t133 -317q0 -192 -132 -322t-324 -130l-78 -2h-102v-540h-362zM422 1086h182q38 0 64 26t26 64t-26 63t-64 25h-182v-178z" />
<glyph unicode="Q" horiz-adv-x="1530" d="M20 908q0 300 222 522t522 222q292 0 507 -221t215 -523q0 -198 -100 -370l124 -122l-256 -254l-114 114q-174 -114 -376 -114q-300 0 -522 223t-222 523zM382 908q0 -150 116 -267t266 -117q56 0 110 18l-90 90l254 252l88 -88q20 60 20 112q0 148 -118 265t-264 117 q-150 0 -266 -116t-116 -266z" />
<glyph unicode="R" horiz-adv-x="1338" d="M60 182v1446h316h406q186 0 319 -133t133 -317q0 -150 -90 -269t-228 -163l362 -564h-406l-348 542h-102v-542h-362zM422 1088h352q38 0 63 26t25 64q0 36 -24 62t-60 26h-4h-352v-178z" />
<glyph unicode="S" horiz-adv-x="1150" d="M60 1156q0 122 54 220t138 154t174 85t174 29q68 0 132 -9t109 -22t78 -26t54 -23t23 -10l-44 -168l-48 -176l-8 4q-6 4 -19 10t-31 13t-44 15t-55 14t-68 10t-79 4q-30 0 -66 -8t-74 -39t-38 -79q0 -28 14 -45t43 -24t49 -8t58 -1q32 0 68 -3t105 -14t128 -40t117 -73 t92 -119t34 -173q0 -234 -156 -367t-374 -133q-204 0 -522 106l100 348q268 -92 422 -92q168 0 168 126v14q0 62 -182 62q-216 0 -371 113t-155 325z" />
<glyph unicode="T" horiz-adv-x="1304" d="M60 1260v358h1184v-358h-412v-1084h-362v1084h-410z" />
<glyph unicode="U" horiz-adv-x="1202" d="M60 700v924h362v-392v-532q0 -74 52 -128t126 -54t127 54t53 128v532v392h362v-924q0 -224 -159 -383t-383 -159t-382 159t-158 383z" />
<glyph unicode="V" horiz-adv-x="1566" d="M60 1628h362l358 -960l2 -14v14l362 960h362l-542 -1446h-362z" />
<glyph unicode="W" horiz-adv-x="2196" d="M60 1628h362l358 -960l2 -14v14l134 358h362v-4l134 -354l2 -14v14l362 960h360l-542 -1446h-360l-132 350l-4 22l-4 -22l-130 -350h-362z" />
<glyph unicode="X" horiz-adv-x="1574" d="M60 432l472 472l-472 474l254 254l474 -474l474 474l252 -254l-472 -474l472 -472l-252 -256l-474 474l-472 -474z" />
<glyph unicode="Y" horiz-adv-x="1574" d="M60 1368l254 256l474 -474l474 474l252 -256l-542 -542v-644h-358v632z" />
<glyph unicode="Z" horiz-adv-x="1294" d="M60 180l586 1106l-22 -24h-520v362h724h406l-588 -1106l22 24h566v-362h-1174z" />
<glyph unicode="[" horiz-adv-x="636" d="M60 -294v2402h516v-342h-172v-1716h172v-344h-516z" />
<glyph unicode="\" horiz-adv-x="1260" d="M60 2088l326 114l814 -2284l-326 -116z" />
<glyph unicode="]" horiz-adv-x="634" d="M60 50h172v1714h-172v342h514v-2402h-514v346z" />
<glyph unicode="_" horiz-adv-x="1262" d="M0 -178v360h1266v-360h-1266z" />
<glyph unicode="a" horiz-adv-x="1166" d="M20 720q0 228 162 390t390 162q94 0 174 -42v32h360v-1082h-360v32q-84 -44 -174 -44q-228 0 -390 162t-162 390zM384 720q0 -80 54 -136t134 -56t137 56t57 136t-57 136t-137 56t-134 -56t-54 -136z" />
<glyph unicode="b" horiz-adv-x="1182" d="M60 180v1446h360v-386q88 36 192 36q228 0 389 -163t161 -391t-161 -389t-389 -161q-110 0 -192 34v-26h-360zM420 722q0 -80 56 -136t136 -56t137 56t57 136t-57 138t-137 58t-136 -58t-56 -138z" />
<glyph unicode="c" horiz-adv-x="978" d="M20 720q0 228 162 390t390 162t386 -158l-260 -256q-54 54 -126 54q-80 0 -136 -56t-56 -136t56 -136t136 -56q74 0 126 52l254 -252q-170 -160 -380 -160q-228 0 -390 162t-162 390z" />
<glyph unicode="d" horiz-adv-x="1182" d="M20 722q0 228 162 391t390 163q110 0 194 -38v388h356v-1446h-356v26q-82 -34 -194 -34q-228 0 -390 161t-162 389zM380 722q0 -80 56 -136t136 -56t137 56t57 136t-57 138t-137 58t-136 -58t-56 -138z" />
<glyph unicode="e" horiz-adv-x="1120" d="M20 720q0 228 162 390t390 162q226 0 377 -162t151 -390l-10 -72h-696q22 -52 71 -86t107 -34q86 0 142 66l270 -240q-168 -186 -412 -186q-228 0 -390 162t-162 390zM418 864h296q-40 76 -148 76t-148 -76z" />
<glyph unicode="f" horiz-adv-x="708" d="M60 180v968q0 196 141 337t335 141h112v-360h-112q-50 0 -83 -34t-33 -84v-64h158v-362h-158v-542h-360z" />
<glyph unicode="g" horiz-adv-x="1222" d="M20 716q0 228 162 391t390 163q104 0 190 -36v24h360v-1082q0 -254 -156 -402q-148 -140 -372 -140h-16q-120 2 -258 66t-214 202l318 174q18 -32 58 -51t64 -24t38 -5h10q84 0 128 42q40 40 40 138v22q-86 -36 -190 -36q-228 0 -390 163t-162 391zM380 716 q0 -80 56 -135t136 -55t135 55t55 135t-55 136t-135 56t-136 -56t-56 -136z" />
<glyph unicode="h" horiz-adv-x="1082" d="M60 180v1446h360v-376q50 16 122 16q200 0 340 -137t140 -331v-618h-358v618q0 44 -36 76t-86 32t-86 -32t-36 -76v-618h-360z" />
<glyph unicode="i" d="M60 180v1080h360v-1080h-360zM70 1400v338h338v-338h-338z" />
<glyph unicode="j" horiz-adv-x="482" d="M-130 -366l22 362q90 4 128 42q40 40 40 138v1082h362v-1082q0 -254 -156 -402q-148 -140 -374 -140h-22zM74 1400v338h336v-338h-336z" />
<glyph unicode="k" horiz-adv-x="1100" d="M60 180v1444h360v-704l370 358l248 -258l-314 -304l316 -318l-250 -254l-324 322l-46 -46v-240h-360z" />
<glyph unicode="l" d="M60 180v1446h360v-1446h-360z" />
<glyph unicode="m" horiz-adv-x="1684" d="M60 180v1082h360v-94q70 94 200 94q138 0 240 -90q128 90 284 90q200 0 340 -136t140 -330v-616h-360v616q0 44 -35 76t-85 32t-86 -32t-36 -76v-616h-358v616q0 44 -36 76t-86 32t-86 -32t-36 -76v-616h-360z" />
<glyph unicode="n" horiz-adv-x="1082" d="M60 180v1082h360v-66q72 66 172 66q194 0 312 -134t118 -332v-616h-358v616q0 44 -38 76t-88 32t-84 -32t-34 -76v-616h-360z" />
<glyph unicode="o" horiz-adv-x="1146" d="M20 720q0 228 162 390t390 162t391 -162t163 -390t-163 -390t-391 -162t-390 162t-162 390zM380 720q0 -80 56 -136t136 -56t137 56t57 136t-57 136t-137 56t-136 -56t-56 -136z" />
<glyph unicode="p" horiz-adv-x="1192" d="M60 -186v1446h360v-26q98 36 192 36q228 0 389 -162t161 -390t-161 -391t-389 -163q-102 0 -192 36v-386h-360zM420 718q0 -80 56 -136t136 -56t137 56t57 136t-57 135t-137 55t-136 -55t-56 -135z" />
<glyph unicode="q" horiz-adv-x="1222" d="M20 716q0 228 162 391t390 163q100 0 194 -38v28h356v-1446h-356v386q-90 -36 -194 -36q-228 0 -390 162t-162 390zM380 718q0 -80 56 -136t136 -56t137 56t57 136t-57 135t-137 55t-136 -55t-56 -135z" />
<glyph unicode="r" horiz-adv-x="640" d="M60 180v1082h356v-60q96 60 204 60v-358q-78 0 -139 -64t-61 -144h-2l-2 -382v-134h-356z" />
<glyph unicode="s" horiz-adv-x="1010" d="M0 304l218 264q134 -78 228 -88h18q54 0 98 13t44 35t-17 36t-43 14l-22 -2h-38q-50 0 -96 5t-109 27t-109 58t-78 106t-32 162q0 162 136 266t290 104q250 0 404 -92l-182 -276q-72 36 -152 36h-10q-128 0 -128 -48q0 -28 46 -32q8 0 71 -3t111 -9q144 -12 248 -99 t104 -233q0 -154 -127 -283t-337 -129q-166 0 -318 51t-218 117z" />
<glyph unicode="t" horiz-adv-x="664" d="M60 906v360h90v270l360 90v-360h94v-360h-94v-726h-360v726h-90zM268 854z" />
<glyph unicode="u" horiz-adv-x="1082" d="M60 642v620h360v-620q0 -44 34 -72t84 -28t88 29t38 71v620h358v-1082h-358v88q-82 -88 -174 -88q-196 0 -313 132t-117 330z" />
<glyph unicode="v" horiz-adv-x="1316" d="M60 1262h384l220 -542l210 542h382l-448 -1082h-296z" />
<glyph unicode="w" horiz-adv-x="1832" d="M60 1262h384l268 -516l186 336h38l184 -336l270 516h382l-488 -1084h-208l-158 326l-150 -326h-222z" />
<glyph unicode="x" horiz-adv-x="1188" d="M60 444l278 278l-278 278l256 252l278 -276l278 276l256 -252l-278 -278l278 -278l-256 -256l-278 278l-278 -278z" />
<glyph unicode="y" horiz-adv-x="1318" d="M60 1258h382l216 -542l218 542h382l-672 -1622l-356 -2l248 626z" />
<glyph unicode="z" horiz-adv-x="1202" d="M20 180l498 724h-446v358h1130l-478 -720h430v-362h-1134z" />
<glyph unicode="{" horiz-adv-x="830" d="M60 898q8 2 21 9t47 37t60 71t47 118t21 173v280q0 134 50 238t130 162t165 86t169 28v-342q-48 0 -102 -30q-70 -36 -70 -142v-342q0 -212 -110 -346q110 -134 110 -342v-342q0 -110 70 -146q50 -28 102 -28v-342q-66 0 -133 17t-136 56t-123 97t-88 148t-34 198v278 q0 96 -20 173t-49 118t-58 69t-49 36z" />
<glyph unicode="|" horiz-adv-x="482" d="M60 -364v2566h362v-2566h-362z" />
<glyph unicode="}" horiz-adv-x="828" d="M60 40q52 0 102 28q72 36 72 146v342q0 208 110 342q-110 134 -110 346v342q0 106 -72 142q-54 30 -102 30v342q84 0 169 -28t165 -86t131 -162t51 -238v-280q0 -96 20 -173t48 -119t56 -70t48 -36l20 -10q-8 -2 -21 -9t-46 -37t-58 -71t-46 -118t-21 -173v-276 q0 -134 -51 -239t-131 -162t-166 -86t-168 -29v342z" />
<glyph unicode="~" horiz-adv-x="1476" d="M60 904q40 44 68 70t80 64t117 57t141 19t141 -19t117 -57t80 -64t68 -70q50 -58 75 -75t61 -17t61 17t75 75h4l268 -238l-2 -2q-56 -62 -93 -97t-125 -76t-188 -41t-188 41t-125 76t-93 97q-50 58 -75 75t-61 17t-61 -17t-75 -75z" />
<glyph horiz-adv-x="1022" />
<glyph unicode="&#xa9;" horiz-adv-x="1806" d="M26 904q0 236 122 442t329 328t441 122q228 0 428 -122t318 -328t118 -442t-117 -442t-317 -328t-430 -122q-236 0 -442 122t-328 329t-122 441zM256 904q0 -258 202 -460t460 -202q254 0 459 203t205 459t-205 460t-459 204q-258 0 -460 -203t-202 -461zM554 904 q0 154 109 263t263 109q152 0 256 -108l-128 -132q-54 54 -128 54q-78 0 -133 -53t-55 -131t55 -133t133 -55q74 0 128 54l128 -132q-104 -108 -256 -108q-154 0 -263 109t-109 263z" />
<glyph unicode="&#xad;" horiz-adv-x="840" d="M60 532v362h720v-362h-720z" />
<glyph unicode="&#xae;" horiz-adv-x="1806" d="M26 904q0 236 122 442t329 328t441 122q228 0 428 -122t318 -328t118 -442t-117 -442t-317 -328t-430 -122q-236 0 -442 122t-328 329t-122 441zM256 904q0 -258 202 -460t460 -202q254 0 459 203t205 459t-205 460t-459 204q-258 0 -460 -203t-202 -461zM640 546v724 h160h204q92 0 159 -67t67 -159q0 -74 -45 -134t-115 -82l180 -282h-204l-174 272h-50v-272h-182zM822 1000h176q18 0 32 13t14 31t-14 31t-32 13h-176v-88z" />
<glyph unicode="&#xb0;" horiz-adv-x="884" d="M24 1440q0 174 124 298q122 122 296 122q172 0 294 -122t122 -298q0 -174 -122 -296t-294 -122q-174 0 -296 122q-124 124 -124 296zM338 1442q0 -44 30 -74t76 -30q44 0 74 30t30 74t-30 74t-74 30q-46 0 -76 -30t-30 -74z" />
<glyph unicode="&#xc4;" horiz-adv-x="1566" d="M60 182l542 1446h362l542 -1446h-362l-136 362h-452l-134 -362h-362zM376 1806v338h342v-338h-342zM694 906h180l-92 238zM850 1806v338h338v-338h-338z" />
<glyph unicode="&#xd5;" horiz-adv-x="1586" d="M60 904q0 300 222 523t522 223q292 0 507 -222t215 -524q0 -300 -214 -522t-508 -222q-300 0 -522 222t-222 522zM398 1804v340h812v-340h-812zM422 904q0 -150 116 -267t266 -117q146 0 264 117t118 267t-118 267t-264 117q-150 0 -266 -117t-116 -267z" />
<glyph unicode="&#xd6;" horiz-adv-x="1586" d="M60 904q0 300 222 523t522 223q292 0 507 -222t215 -524q0 -300 -214 -522t-508 -222q-300 0 -522 222t-222 522zM398 1804v340h338v-340h-338zM422 904q0 -150 116 -267t266 -117q146 0 264 117t118 267t-118 267t-264 117q-150 0 -266 -117t-116 -267zM872 1804v340 h338v-340h-338z" />
<glyph unicode="&#xd7;" horiz-adv-x="1142" d="M60 640l256 256l-256 256l256 254l256 -256l256 256l254 -254l-256 -256l256 -256l-254 -256l-256 256l-256 -256z" />
<glyph unicode="&#xdc;" horiz-adv-x="1202" d="M60 700v924h362v-392v-532q0 -74 52 -128t126 -54t127 54t53 128v532v392h362v-924q0 -224 -159 -383t-383 -159t-382 159t-158 383zM194 1796v338h340v-338h-340zM668 1796v338h340v-338h-340z" />
<glyph unicode="&#xe4;" horiz-adv-x="1166" d="M20 720q0 228 162 391t390 163q90 0 174 -44v32h360v-1082h-360v34q-80 -42 -174 -42q-228 0 -390 160t-162 388zM218 1400v338h338v-338h-338zM384 720q0 -80 54 -136t134 -56t137 56t57 136t-57 136t-137 56t-134 -56t-54 -136zM692 1400v338h340v-338h-340z" />
<glyph unicode="&#xf5;" horiz-adv-x="1146" d="M20 720q0 228 162 391t390 163t391 -163t163 -391t-163 -388t-391 -160t-390 160t-162 388zM166 1400v338h812v-338h-812zM380 720q0 -80 56 -136t136 -56t137 56t57 136t-57 136t-137 56t-136 -56t-56 -136z" />
<glyph unicode="&#xf6;" horiz-adv-x="1146" d="M20 720q0 228 162 391t390 163t391 -163t163 -391t-163 -388t-391 -160t-390 160t-162 388zM166 1400v336h338v-336h-338zM380 720q0 -80 56 -135t136 -55t137 55t57 135t-57 136t-137 56t-136 -56t-56 -136zM640 1400v336h338v-336h-338z" />
<glyph unicode="&#xf7;" horiz-adv-x="1204" d="M60 744v314h1084v-314h-1084zM444 358v318h314v-318h-314zM444 1126v316h314v-316h-314z" />
<glyph unicode="&#xfc;" horiz-adv-x="1082" d="M60 650v616h360v-616q0 -44 34 -76t84 -32t88 32t38 76v616h358v-1086h-358v88q-82 -88 -174 -88q-194 0 -312 135t-118 335zM142 1400v338h338v-338h-338zM616 1400v338h338v-338h-338z" />
<glyph unicode="&#x2000;" horiz-adv-x="1140" />
<glyph unicode="&#x2001;" horiz-adv-x="2280" />
<glyph unicode="&#x2002;" horiz-adv-x="1140" />
<glyph unicode="&#x2003;" horiz-adv-x="2280" />
<glyph unicode="&#x2004;" horiz-adv-x="760" />
<glyph unicode="&#x2005;" horiz-adv-x="570" />
<glyph unicode="&#x2006;" horiz-adv-x="380" />
<glyph unicode="&#x2007;" horiz-adv-x="380" />
<glyph unicode="&#x2008;" horiz-adv-x="285" />
<glyph unicode="&#x2009;" horiz-adv-x="456" />
<glyph unicode="&#x200a;" horiz-adv-x="126" />
<glyph unicode="&#x2010;" horiz-adv-x="840" d="M60 532v362h720v-362h-720z" />
<glyph unicode="&#x2011;" horiz-adv-x="840" d="M60 532v362h720v-362h-720z" />
<glyph unicode="&#x2012;" horiz-adv-x="840" d="M60 532v362h720v-362h-720z" />
<glyph unicode="&#x2013;" horiz-adv-x="1316" d="M28 602v362h1262v-362h-1262z" />
<glyph unicode="&#x2014;" horiz-adv-x="1498" d="M28 602v362h1446v-362h-1446z" />
<glyph unicode="&#x2018;" horiz-adv-x="398" d="M18 1246v360q0 62 29 122t57 88l30 28l166 -72l-4 -4q-4 -2 -9 -9t-12 -16t-14 -22t-13 -29t-10 -39t-4 -47h146v-360h-362z" />
<glyph unicode="&#x2019;" horiz-adv-x="398" d="M18 1468v360h362v-360q0 -62 -28 -122t-56 -88l-30 -28l-168 74l4 4q4 2 9 8t12 15t14 23t13 30t10 38t4 46h-146z" />
<glyph unicode="&#x201a;" horiz-adv-x="398" d="M18 32v362h362v-362q0 -62 -28 -121t-56 -87l-30 -28l-168 74q8 4 18 14t29 52t19 96h-146z" />
<glyph unicode="&#x201c;" horiz-adv-x="790" d="M18 1246v360q0 62 29 122t57 88l30 28l166 -72l-4 -4q-4 -2 -9 -9t-12 -16t-14 -22t-13 -29t-10 -39t-4 -47h146v-360h-362zM412 1246v360q0 62 29 122t59 88l28 28l166 -72l-4 -4q-4 -2 -10 -9t-13 -16t-14 -22t-13 -29t-10 -39t-4 -47h148v-360h-362z" />
<glyph unicode="&#x201d;" horiz-adv-x="790" d="M18 1468v360h362v-360q0 -62 -28 -122t-56 -88l-30 -28l-168 74l4 4q4 2 9 8t12 15t14 23t13 30t10 38t4 46h-146zM412 1468v360h362v-360q0 -62 -29 -122t-59 -88l-30 -28l-164 74l4 4q4 2 9 8t12 15t14 23t13 30t10 38t4 46h-146z" />
<glyph unicode="&#x201e;" horiz-adv-x="790" d="M18 32v362h362v-362q0 -62 -28 -121t-56 -87l-30 -28l-168 74l4 2q4 4 9 10t12 15t14 22t13 29t10 38t4 46h-146zM412 32v362h362v-362q0 -62 -29 -121t-59 -87l-30 -28l-164 74l4 2q4 4 9 10t12 15t14 22t13 29t10 38t4 46h-146z" />
<glyph unicode="&#x2022;" horiz-adv-x="1312" d="M274 696q0 150 118 268t268 118q146 0 264 -118t118 -268q0 -148 -118 -265t-264 -117q-150 0 -268 116t-118 266z" />
<glyph unicode="&#x202f;" horiz-adv-x="456" />
<glyph unicode="&#x205f;" horiz-adv-x="570" />
<glyph unicode="&#x20ac;" horiz-adv-x="1426" d="M26 720l20 144h98v34v34h-86l24 142h82q60 248 263 408t463 160q300 0 512 -216l-258 -260q-106 106 -254 106q-106 0 -195 -54t-137 -144h488l-24 -142h-504q0 -4 -1 -16t-1 -16q0 -24 2 -36h494l-24 -144h-426q48 -86 136 -139t192 -53q146 0 252 106l260 -264 q-212 -216 -512 -216q-262 0 -464 160t-262 406h-138z" />
<glyph unicode="&#x2122;" horiz-adv-x="2474" d="M38 758q0 30 17 55t43 33l866 306l-866 308q-60 20 -60 86q0 18 4 28q8 26 34 43t56 17q18 0 28 -4l1078 -380l1080 380q10 4 28 4q30 0 56 -17t34 -43q4 -8 4 -26q0 -68 -62 -88l-864 -308l864 -306q62 -20 62 -88q0 -20 -4 -28q-22 -62 -88 -62q-16 0 -30 6l-390 138 q-6 4 -14 0l-4 -10v-640q0 -34 -27 -59t-61 -25t-59 25t-25 59v702q-2 4 -4 12l-12 8l-484 172q-376 -134 -384 -136l-2 -2q-10 -4 -8 -10q46 -78 46 -156v-10q-2 -104 -48 -172q72 -72 72 -200q0 -132 -75 -205t-177 -89q-48 -6 -52 -6q-56 0 -188 24q-32 8 -53 33t-21 59 q0 14 2 22q8 34 34 55t58 21q12 0 20 -2q76 -16 152 -16h20q88 16 88 104q0 48 -18 66q-20 20 -50 20h-4h-2h-60q-40 0 -68 28t-28 68t28 68t68 28h54h4q48 4 50 98v4q0 38 -16 59t-32 23q-18 6 -42 0l-446 -158l-30 -6q-66 0 -88 62q-4 10 -4 28zM598 1700q0 136 189 210 t451 74t450 -74t188 -210t-188 -210t-450 -74t-451 74t-189 210zM786 1700q34 -34 154 -67t298 -33t299 33t155 67q-36 36 -156 69t-298 33t-297 -33t-155 -69zM1152 164v740q0 34 26 59t60 25t60 -25t26 -59v-740q0 -34 -26 -60t-60 -26t-60 26t-26 60z" />
<glyph unicode="&#x25fc;" horiz-adv-x="1250" d="M0 0v1250h1250v-1250h-1250z" />
<glyph unicode="&#xfb01;" horiz-adv-x="1020" d="M60 180v966q0 196 140 336t338 140h312v-360h-312q-50 0 -84 -34t-34 -82v-64h542v-902h-360v542h-182v-542h-360z" />
<glyph unicode="&#xfb02;" horiz-adv-x="1068" d="M54 174v972q0 198 141 339t339 141h110h362v-1452h-362v1088h-110q-48 0 -83 -34t-35 -82v-66h118v-362h-118v-544h-362z" />
</font>
</defs>
</svg>
